<svg width="2202" height="266" viewBox="0 0 2202 266" fill="none" xmlns="http://www.w3.org/2000/svg">
<path d="M0 249.345L46.5569 17H90.4535L156.631 181.633L133.352 181.301L262.382 17H308.606L262.382 249.345H211.834L242.761 93.6737H253.07L150.312 224.782H126.369L71.4981 93.3418L81.4746 94.3376L50.5475 249.345H0Z" fill="#4B3392"/>
<path d="M394.43 252C376.25 252 360.399 248.681 346.875 242.042C333.351 235.404 322.821 226.11 315.283 214.161C307.967 202.212 304.309 188.161 304.309 172.007C304.309 152.092 308.964 134.389 318.276 118.9C327.587 103.189 340.335 90.7971 356.519 81.7246C372.925 72.6521 391.548 68.1158 412.387 68.1158C430.788 68.1158 446.64 71.435 459.942 78.0734C473.466 84.7119 483.886 94.0057 491.202 105.955C498.739 117.683 502.508 131.734 502.508 148.109C502.508 167.803 497.853 185.505 488.541 201.216C479.23 216.927 466.482 229.319 450.298 238.391C434.114 247.464 415.491 252 394.43 252ZM397.755 209.514C407.953 209.514 416.932 207.08 424.692 202.212C432.673 197.122 438.881 190.152 443.315 181.301C447.748 172.45 449.965 162.16 449.965 150.432C449.965 138.483 446.418 128.857 439.324 121.555C432.23 114.253 422.253 110.602 409.394 110.602C399.196 110.602 390.107 113.146 382.125 118.236C374.366 123.104 368.158 129.964 363.503 138.815C359.069 147.666 356.852 157.956 356.852 169.684C356.852 181.854 360.399 191.59 367.493 198.893C374.588 205.974 384.675 209.514 397.755 209.514Z" fill="#4B3392"/>
<path d="M548.948 249.345L509.375 70.7712H560.588L593.51 224.451H566.906L661.683 70.7712H713.56L602.489 249.345H548.948Z" fill="#4B3392"/>
<path d="M776.082 252C757.459 252 741.275 248.681 727.53 242.042C714.006 235.404 703.476 226.11 695.938 214.161C688.4 202.212 684.631 188.161 684.631 172.007C684.631 152.092 689.065 134.389 697.933 118.9C707.023 103.189 719.438 90.7971 735.179 81.7246C751.141 72.6521 769.431 68.1158 790.049 68.1158C807.564 68.1158 822.639 71.435 835.276 78.0734C847.913 84.4906 857.668 93.5631 864.54 105.291C871.635 116.798 875.182 130.628 875.182 146.781C875.182 151.428 874.849 156.075 874.184 160.722C873.741 165.369 873.076 169.794 872.189 173.999H724.205L729.525 143.794H847.913L826.63 153.088C828.403 143.13 827.849 134.832 824.967 128.194C822.085 121.334 817.429 116.134 811 112.593C804.571 108.831 796.811 106.951 787.721 106.951C776.415 106.951 766.771 109.717 758.79 115.249C751.03 120.559 745.155 127.972 741.164 137.487C737.174 147.002 735.179 157.734 735.179 169.684C735.179 183.403 738.948 193.693 746.485 200.552C754.245 207.191 765.884 210.51 781.403 210.51C790.493 210.51 799.25 209.072 807.674 206.195C816.099 203.318 823.304 199.225 829.29 193.914L850.906 228.102C840.486 236.289 828.736 242.374 815.656 246.357C802.797 250.119 789.606 252 776.082 252Z" fill="#4B3392"/>
<path d="M879.814 249.345L926.371 17H970.268L1036.45 181.633L1013.17 181.301L1142.2 17H1188.42L1142.2 249.345H1091.65L1122.58 93.6737H1132.88L1030.13 224.782H1006.18L951.312 93.3418L961.289 94.3376L930.362 249.345H879.814Z" fill="#4B3392"/>
<path d="M1261.61 252C1247.86 252 1235.11 248.902 1223.36 242.706C1211.61 236.289 1202.19 227.106 1195.1 215.157C1188 203.208 1184.46 188.824 1184.46 172.007C1184.46 156.96 1186.89 143.13 1191.77 130.517C1196.87 117.904 1203.97 106.951 1213.05 97.6568C1222.14 88.363 1232.68 81.1714 1244.65 76.0819C1256.62 70.7712 1269.48 68.1158 1283.22 68.1158C1298.08 68.1158 1310.82 70.8818 1321.47 76.4138C1332.11 81.9459 1339.98 90.5758 1345.08 102.304C1350.4 113.81 1352.28 128.747 1350.73 147.113C1349.62 168.135 1345.3 186.612 1337.76 202.544C1330.22 218.255 1320.03 230.425 1307.17 239.055C1294.53 247.685 1279.34 252 1261.61 252ZM1277.57 209.182C1287.77 209.182 1296.75 206.748 1304.51 201.88C1312.49 196.791 1318.69 189.931 1323.13 181.301C1327.78 172.45 1330.11 162.16 1330.11 150.432C1330.11 138.262 1326.45 128.636 1319.14 121.555C1312.04 114.474 1302.07 110.934 1289.21 110.934C1279.23 110.934 1270.25 113.478 1262.27 118.568C1254.29 123.436 1247.97 130.296 1243.32 139.147C1238.88 147.777 1236.67 157.956 1236.67 169.684C1236.67 181.854 1240.21 191.48 1247.31 198.561C1254.62 205.642 1264.71 209.182 1277.57 209.182ZM1313.15 249.345L1320.14 213.829L1331.78 160.722L1338.76 107.614L1346.07 70.7712H1397.95L1362.37 249.345H1313.15Z" fill="#4B3392"/>
<path d="M1469.93 252C1457.07 252 1446.09 249.455 1437 244.366C1427.91 239.055 1421.37 231.532 1417.38 221.795C1413.61 211.838 1413.06 200.11 1415.72 186.612L1446.65 31.2726H1498.53L1467.6 186.28C1466.27 193.803 1467.04 199.778 1469.93 204.203C1472.81 208.629 1478.13 210.842 1485.89 210.842C1489.44 210.842 1492.98 210.289 1496.53 209.182C1500.3 208.076 1503.74 206.527 1506.84 204.535L1514.49 241.379C1508.06 245.362 1500.96 248.128 1493.2 249.677C1485.44 251.226 1477.69 252 1469.93 252ZM1402.42 114.585L1410.4 74.7542H1534.44L1526.46 114.585H1402.42Z" fill="#4B3392"/>
<path d="M1617.9 252C1599.28 252 1583.09 248.681 1569.35 242.042C1555.82 235.404 1545.29 226.11 1537.76 214.161C1530.22 202.212 1526.45 188.161 1526.45 172.007C1526.45 152.092 1530.88 134.389 1539.75 118.9C1548.84 103.189 1561.26 90.7971 1577 81.7246C1592.96 72.6521 1611.25 68.1158 1631.87 68.1158C1649.38 68.1158 1664.46 71.435 1677.09 78.0734C1689.73 84.4906 1699.49 93.5631 1706.36 105.291C1713.45 116.798 1717 130.628 1717 146.781C1717 151.428 1716.67 156.075 1716 160.722C1715.56 165.369 1714.89 169.794 1714.01 173.999H1566.02L1571.34 143.794H1689.73L1668.45 153.088C1670.22 143.13 1669.67 134.832 1666.78 128.194C1663.9 121.334 1659.25 116.134 1652.82 112.593C1646.39 108.831 1638.63 106.951 1629.54 106.951C1618.23 106.951 1608.59 109.717 1600.61 115.249C1592.85 120.559 1586.97 127.972 1582.98 137.487C1578.99 147.002 1577 157.734 1577 169.684C1577 183.403 1580.77 193.693 1588.3 200.552C1596.06 207.191 1607.7 210.51 1623.22 210.51C1632.31 210.51 1641.07 209.072 1649.49 206.195C1657.92 203.318 1665.12 199.225 1671.11 193.914L1692.72 228.102C1682.3 236.289 1670.55 242.374 1657.47 246.357C1644.62 250.119 1631.42 252 1617.9 252Z" fill="#4B3392"/>
<path d="M1828 58.1875H1991.89L2004.49 83.125H1840.61L1828 58.1875ZM1844.81 108.062H2008.7L2021.3 133H1857.42L1844.81 108.062ZM2117.96 241.062C2131.91 241.062 2143.17 229.924 2143.17 216.125C2143.17 202.326 2131.91 191.188 2117.96 191.188C2104 191.188 2092.74 202.326 2092.74 216.125C2092.74 229.924 2104 241.062 2117.96 241.062ZM2143.17 91.4375H2101.15V133H2176.11L2143.17 91.4375ZM1949.87 241.062C1963.82 241.062 1975.08 229.924 1975.08 216.125C1975.08 202.326 1963.82 191.188 1949.87 191.188C1935.91 191.188 1924.65 202.326 1924.65 216.125C1924.65 229.924 1935.91 241.062 1949.87 241.062ZM2151.57 66.5L2202 133V216.125H2168.38C2168.38 243.722 2145.86 266 2117.96 266C2090.05 266 2067.53 243.722 2067.53 216.125H2000.29C2000.29 243.722 1977.6 266 1949.87 266C1921.96 266 1899.44 243.722 1899.44 216.125H1865.82V157.938H1899.44V182.875H1912.21C1921.46 172.734 1934.91 166.25 1949.87 166.25C1964.83 166.25 1978.27 172.734 1987.52 182.875H2067.53V33.25H1865.82C1865.82 14.7962 1880.78 0 1899.44 0H2101.15V66.5H2151.57Z" fill="#F27A22"/>
</svg>
